<mxfile host="Electron" modified="2023-09-27T17:22:43.915Z" agent="Mozilla/5.0 (Windows NT 10.0; Win64; x64) AppleWebKit/537.36 (KHTML, like Gecko) draw.io/21.6.5 Chrome/114.0.5735.243 Electron/25.3.1 Safari/537.36" etag="FX5uBX44ujmthZCWJbvW" version="21.6.5" type="device">
  <diagram name="Page-1" id="mvfcP_LjXPrBnGKEzft0">
    <mxGraphModel dx="980" dy="562" grid="1" gridSize="10" guides="1" tooltips="1" connect="1" arrows="1" fold="1" page="1" pageScale="1" pageWidth="827" pageHeight="1169" math="0" shadow="0">
      <root>
        <mxCell id="0" />
        <mxCell id="1" parent="0" />
        <mxCell id="5YEOkj2XQ0ZOmZGDPAce-21" value="" style="ellipse;whiteSpace=wrap;html=1;" vertex="1" parent="1">
          <mxGeometry x="180" y="260" width="290" height="230" as="geometry" />
        </mxCell>
        <mxCell id="5YEOkj2XQ0ZOmZGDPAce-5" value="" style="ellipse;whiteSpace=wrap;html=1;" vertex="1" parent="1">
          <mxGeometry x="180" y="10" width="310" height="210" as="geometry" />
        </mxCell>
        <mxCell id="5YEOkj2XQ0ZOmZGDPAce-1" value="DAIA" style="rounded=1;whiteSpace=wrap;html=1;fillColor=#b1ddf0;strokeColor=#10739e;" vertex="1" parent="1">
          <mxGeometry x="200" y="100" width="120" height="60" as="geometry" />
        </mxCell>
        <mxCell id="5YEOkj2XQ0ZOmZGDPAce-2" value="User PC (Server)" style="rounded=1;whiteSpace=wrap;html=1;fillColor=#0050ef;fontColor=#ffffff;strokeColor=#001DBC;" vertex="1" parent="1">
          <mxGeometry x="275" y="280" width="120" height="60" as="geometry" />
        </mxCell>
        <mxCell id="5YEOkj2XQ0ZOmZGDPAce-13" style="edgeStyle=orthogonalEdgeStyle;rounded=0;orthogonalLoop=1;jettySize=auto;html=1;entryX=1;entryY=0.5;entryDx=0;entryDy=0;" edge="1" parent="1" source="5YEOkj2XQ0ZOmZGDPAce-3" target="5YEOkj2XQ0ZOmZGDPAce-1">
          <mxGeometry relative="1" as="geometry" />
        </mxCell>
        <mxCell id="5YEOkj2XQ0ZOmZGDPAce-3" value="DVAI" style="rounded=1;whiteSpace=wrap;html=1;fillColor=#b0e3e6;strokeColor=#0e8088;" vertex="1" parent="1">
          <mxGeometry x="354" y="100" width="120" height="60" as="geometry" />
        </mxCell>
        <mxCell id="5YEOkj2XQ0ZOmZGDPAce-4" value="Client Server" style="rounded=1;whiteSpace=wrap;html=1;fillColor=#1ba1e2;fontColor=#ffffff;strokeColor=#006EAF;" vertex="1" parent="1">
          <mxGeometry x="280" y="20" width="120" height="60" as="geometry" />
        </mxCell>
        <mxCell id="5YEOkj2XQ0ZOmZGDPAce-6" value="" style="curved=1;endArrow=classic;html=1;rounded=0;exitX=0.75;exitY=0;exitDx=0;exitDy=0;entryX=0.5;entryY=1;entryDx=0;entryDy=0;" edge="1" parent="1" source="5YEOkj2XQ0ZOmZGDPAce-2" target="5YEOkj2XQ0ZOmZGDPAce-3">
          <mxGeometry width="50" height="50" relative="1" as="geometry">
            <mxPoint x="200" y="280" as="sourcePoint" />
            <mxPoint x="250" y="230" as="targetPoint" />
            <Array as="points">
              <mxPoint x="350" y="220" />
            </Array>
          </mxGeometry>
        </mxCell>
        <mxCell id="5YEOkj2XQ0ZOmZGDPAce-14" value="Screen info&lt;br&gt;" style="edgeLabel;resizable=0;html=1;align=center;verticalAlign=middle;rotation=90;" connectable="0" vertex="1" parent="1">
          <mxGeometry x="340" y="130" as="geometry" />
        </mxCell>
        <mxCell id="5YEOkj2XQ0ZOmZGDPAce-15" value="" style="curved=1;endArrow=classic;html=1;rounded=0;exitX=0.5;exitY=1;exitDx=0;exitDy=0;entryX=0.5;entryY=0;entryDx=0;entryDy=0;" edge="1" parent="1" source="5YEOkj2XQ0ZOmZGDPAce-1" target="5YEOkj2XQ0ZOmZGDPAce-18">
          <mxGeometry width="50" height="50" relative="1" as="geometry">
            <mxPoint x="231" y="300" as="sourcePoint" />
            <mxPoint x="280" y="180" as="targetPoint" />
            <Array as="points">
              <mxPoint x="216" y="240" />
            </Array>
          </mxGeometry>
        </mxCell>
        <mxCell id="5YEOkj2XQ0ZOmZGDPAce-16" value="Screen Shot" style="edgeLabel;resizable=0;html=1;align=center;verticalAlign=middle;" connectable="0" vertex="1" parent="1">
          <mxGeometry x="360" y="240" as="geometry" />
        </mxCell>
        <mxCell id="5YEOkj2XQ0ZOmZGDPAce-17" value="Instructions" style="edgeLabel;resizable=0;html=1;align=center;verticalAlign=middle;" connectable="0" vertex="1" parent="1">
          <mxGeometry x="370" y="260" as="geometry">
            <mxPoint x="-129" y="-3" as="offset" />
          </mxGeometry>
        </mxCell>
        <mxCell id="5YEOkj2XQ0ZOmZGDPAce-19" style="edgeStyle=orthogonalEdgeStyle;rounded=0;orthogonalLoop=1;jettySize=auto;html=1;exitX=0.75;exitY=0;exitDx=0;exitDy=0;entryX=0.292;entryY=1.022;entryDx=0;entryDy=0;entryPerimeter=0;" edge="1" parent="1" source="5YEOkj2XQ0ZOmZGDPAce-18" target="5YEOkj2XQ0ZOmZGDPAce-2">
          <mxGeometry relative="1" as="geometry" />
        </mxCell>
        <mxCell id="5YEOkj2XQ0ZOmZGDPAce-18" value="DAIA Instructions converter and processor" style="rounded=1;whiteSpace=wrap;html=1;fillColor=#76608a;fontColor=#ffffff;strokeColor=#432D57;" vertex="1" parent="1">
          <mxGeometry x="210" y="380" width="120" height="60" as="geometry" />
        </mxCell>
        <mxCell id="5YEOkj2XQ0ZOmZGDPAce-20" value="Execute insructions" style="edgeLabel;resizable=0;html=1;align=center;verticalAlign=middle;" connectable="0" vertex="1" parent="1">
          <mxGeometry x="320" y="360" as="geometry" />
        </mxCell>
        <mxCell id="5YEOkj2XQ0ZOmZGDPAce-23" value="" style="curved=1;endArrow=classic;html=1;rounded=0;exitX=0.75;exitY=1;exitDx=0;exitDy=0;entryX=0.25;entryY=1;entryDx=0;entryDy=0;" edge="1" parent="1" source="5YEOkj2XQ0ZOmZGDPAce-1" target="5YEOkj2XQ0ZOmZGDPAce-3">
          <mxGeometry width="50" height="50" relative="1" as="geometry">
            <mxPoint x="150" y="230" as="sourcePoint" />
            <mxPoint x="160" y="450" as="targetPoint" />
            <Array as="points">
              <mxPoint x="330" y="210" />
            </Array>
          </mxGeometry>
        </mxCell>
        <mxCell id="5YEOkj2XQ0ZOmZGDPAce-22" value="Context" style="edgeLabel;resizable=0;html=1;align=center;verticalAlign=middle;" connectable="0" vertex="1" parent="1">
          <mxGeometry x="335" y="180" as="geometry" />
        </mxCell>
      </root>
    </mxGraphModel>
  </diagram>
</mxfile>
